<svg width="20" height="20" viewBox="0 0 20 20" fill="none" xmlns="http://www.w3.org/2000/svg">
<path d="M17.1564 9.44369L3.40636 2.56869C3.29859 2.5148 3.17754 2.4932 3.05778 2.50651C2.93803 2.51981 2.82467 2.56746 2.73136 2.64369C2.64225 2.71838 2.57574 2.81643 2.5393 2.92685C2.50287 3.03726 2.49795 3.15564 2.52511 3.26869L4.37511 9.99994L2.50011 16.7124C2.47463 16.8069 2.47165 16.9059 2.49143 17.0017C2.5112 17.0975 2.55317 17.1873 2.61396 17.2639C2.67475 17.3405 2.75267 17.4017 2.84144 17.4427C2.93022 17.4837 3.02738 17.5033 3.12511 17.4999C3.22295 17.4994 3.31928 17.4758 3.40636 17.4312L17.1564 10.5562C17.2587 10.5037 17.3447 10.4241 17.4046 10.3259C17.4646 10.2278 17.4964 10.115 17.4964 9.99994C17.4964 9.88491 17.4646 9.77212 17.4046 9.67397C17.3447 9.57583 17.2587 9.49614 17.1564 9.44369ZM4.09386 15.6937L5.47511 10.6249H11.2501V9.37494H5.47511L4.09386 4.30619L15.4751 9.99994L4.09386 15.6937Z" fill="#EB0029" stroke="#EB0029" stroke-width="0.5"/>
</svg>
