<svg width="19" height="21" viewBox="0 0 19 21" fill="none" xmlns="http://www.w3.org/2000/svg">
<path d="M1.74196 8.18667C1.77883 7.72724 1.9874 7.29855 2.32613 6.98599C2.66486 6.67342 3.10889 6.49991 3.56979 6.5H14.623C15.0839 6.49991 15.5279 6.67342 15.8666 6.98599C16.2054 7.29855 16.4139 7.72724 16.4508 8.18667L17.1869 17.3533C17.2071 17.6056 17.1749 17.8593 17.0923 18.0985C17.0097 18.3377 16.8784 18.5572 16.7068 18.7432C16.5352 18.9292 16.3269 19.0777 16.0951 19.1792C15.8633 19.2808 15.613 19.3333 15.36 19.3333H2.83279C2.57972 19.3333 2.32941 19.2808 2.09761 19.1792C1.86581 19.0777 1.65754 18.9292 1.48593 18.7432C1.31432 18.5572 1.18307 18.3377 1.10045 18.0985C1.01783 17.8593 0.985631 17.6056 1.00588 17.3533L1.74196 8.18667V8.18667Z" stroke="black" stroke-width="2" stroke-linecap="round" stroke-linejoin="round"/>
<path d="M12.763 9.25V4.66667C12.763 3.69421 12.3767 2.76158 11.6891 2.07394C11.0014 1.38631 10.0688 1 9.09635 1C8.12389 1 7.19126 1.38631 6.50363 2.07394C5.816 2.76158 5.42969 3.69421 5.42969 4.66667V9.25" stroke="black" stroke-width="2" stroke-linecap="round" stroke-linejoin="round"/>
</svg>
