<svg width="21" height="21" viewBox="0 0 21 21" fill="none" xmlns="http://www.w3.org/2000/svg">
<path d="M20.5407 7.39469C20.476 7.20404 20.3568 7.03653 20.198 6.91282C20.0391 6.78911 19.8475 6.71463 19.6469 6.69857L13.7762 6.23209L11.2358 0.608556C11.1549 0.427433 11.0233 0.273597 10.8569 0.165612C10.6905 0.0576267 10.4964 0.00010903 10.298 1.54854e-07C10.0996 -0.00010872 9.90545 0.0571959 9.73892 0.164998C9.5724 0.2728 9.44064 0.426493 9.35953 0.607526L6.81911 6.23209L0.948438 6.69857C0.751192 6.71419 0.562625 6.78631 0.405295 6.9063C0.247965 7.02629 0.128534 7.18906 0.0612908 7.37515C-0.00595242 7.56124 -0.0181608 7.76276 0.0261263 7.9556C0.0704134 8.14845 0.169321 8.32445 0.311015 8.46255L4.6494 12.6918L3.11506 19.3358C3.06847 19.5369 3.0834 19.7474 3.15792 19.9399C3.23243 20.1324 3.36309 20.2981 3.53294 20.4154C3.70278 20.5328 3.90398 20.5964 4.11041 20.5979C4.31684 20.5995 4.51898 20.539 4.69059 20.4243L10.2976 16.6862L15.9047 20.4243C16.0801 20.5407 16.287 20.6007 16.4975 20.5961C16.708 20.5914 16.912 20.5225 17.0821 20.3984C17.2523 20.2744 17.3803 20.1012 17.4491 19.9023C17.5179 19.7033 17.5241 19.488 17.4668 19.2853L15.5834 12.6949L20.2544 8.49138C20.5603 8.21541 20.6725 7.78497 20.5407 7.39469Z" fill="#F2C94C"/>
</svg>
