<svg width="25" height="25" viewBox="0 0 25 25" fill="none" xmlns="http://www.w3.org/2000/svg">
<path d="M6.71 14.7494L5.17566 21.3934C5.12814 21.5946 5.14241 21.8054 5.21658 21.9984C5.29076 22.1913 5.4214 22.3574 5.59144 22.475C5.76149 22.5925 5.96303 22.6561 6.16974 22.6573C6.37646 22.6585 6.57874 22.5974 6.75016 22.4819L12.3572 18.7438L17.9643 22.4819C18.1397 22.5983 18.3465 22.6583 18.557 22.6537C18.7675 22.649 18.9716 22.5801 19.1417 22.456C19.3118 22.332 19.4399 22.1588 19.5087 21.9598C19.5775 21.7608 19.5836 21.5456 19.5264 21.3429L17.643 14.7525L22.314 10.549C22.4636 10.4143 22.5704 10.2387 22.6213 10.0439C22.6721 9.84911 22.6648 9.64369 22.6002 9.45304C22.5355 9.26239 22.4164 9.09487 22.2576 8.9712C22.0987 8.84752 21.9071 8.77312 21.7064 8.75719L15.8358 8.28968L13.2953 2.66615C13.2143 2.48507 13.0826 2.3313 12.9162 2.22341C12.7497 2.11552 12.5556 2.05811 12.3572 2.05811C12.1588 2.05811 11.9647 2.11552 11.7983 2.22341C11.6318 2.3313 11.5001 2.48507 11.4191 2.66615L8.87868 8.28968L3.00801 8.75616C2.81076 8.77179 2.6222 8.84391 2.46487 8.96389C2.30754 9.08388 2.1881 9.24666 2.12086 9.43274C2.05362 9.61883 2.04141 9.82035 2.0857 10.0132C2.12998 10.206 2.22889 10.382 2.37059 10.5201L6.71 14.7494ZM9.64791 10.2946C9.83172 10.2801 10.0082 10.2165 10.159 10.1103C10.3097 10.0041 10.4291 9.85937 10.5047 9.69118L12.3572 5.5917L14.2098 9.69118C14.2853 9.85937 14.4047 10.0041 14.5554 10.1103C14.7062 10.2165 14.8827 10.2801 15.0665 10.2946L19.1567 10.619L15.7884 13.6506C15.4959 13.9142 15.3796 14.32 15.4867 14.6989L16.777 19.2144L12.9298 16.6493C12.7609 16.5359 12.5621 16.4754 12.3588 16.4754C12.1554 16.4754 11.9566 16.5359 11.7878 16.6493L7.76757 19.3298L8.84882 14.6485C8.88846 14.4763 8.88314 14.2968 8.83337 14.1273C8.78359 13.9578 8.69104 13.8039 8.5646 13.6805L5.43619 10.6303L9.64791 10.2946Z" fill="#F2C94C"/>
</svg>
